<svg width="493" height="846" viewBox="0 0 493 846" fill="none" xmlns="http://www.w3.org/2000/svg">
<path d="M43.2077 1.34999C23.2077 5.64999 5.60768 23.45 1.40768 43.55C-0.592322 52.85 -0.492322 59.15 1.90768 68.25C4.60768 78.95 8.20768 85.15 16.4077 93.45C27.0077 104.25 40.0077 109.85 54.2077 109.85C60.6077 109.85 60.7077 109.95 64.8077 114.35C71.1077 121.15 78.4077 133.05 81.8077 141.65C86.9077 154.85 91.4077 179.75 94.4077 210.85C96.0077 228.05 97.9077 259.05 97.9077 267.75L97.8077 273.35L88.3077 281.35C61.0077 304.15 36.2077 336.25 19.4077 370.35C11.0077 387.45 1.30768 412.15 2.40768 413.85C2.70768 414.45 5.30768 412.05 8.10768 408.55C16.4077 398.45 35.5077 380.05 49.0077 369.25C91.1077 335.45 140.808 312.75 191.908 303.95C213.608 300.15 224.008 299.35 249.908 299.35C271.208 299.45 277.908 299.85 290.908 301.75C340.908 309.15 388.508 329.15 430.208 360.15C451.708 376.15 474.308 397.25 486.208 412.55C488.508 415.45 490.708 417.45 491.108 417.05C492.008 416.15 489.208 405.75 485.008 394.25C468.408 348.65 440.208 308.85 402.708 277.95C396.008 272.45 394.908 271.15 394.908 268.45C394.908 250.35 399.008 201.45 402.408 179.75C407.608 146.15 413.708 130.55 427.808 114.55L432.108 109.85H438.808C453.308 109.85 467.008 103.75 477.508 92.55C498.408 70.45 497.908 37.85 476.408 16.35C454.608 -5.44999 421.308 -5.44999 399.308 16.35C385.408 30.15 380.008 48.85 384.408 67.65C386.208 75.15 390.708 84.45 395.008 89.35L398.208 92.95L397.608 107.15C397.008 123.55 394.608 134.25 387.308 154.55C378.308 179.65 365.108 203.15 353.208 215.55C342.808 226.25 329.108 233.65 321.108 232.55C319.108 232.35 311.308 230.55 303.908 228.55C282.708 223.05 269.608 221.45 245.408 221.45C219.308 221.45 204.508 223.45 180.508 230.45C169.908 233.55 166.308 233.35 157.108 228.75C139.308 220.05 121.608 195.25 107.508 159.45C99.8077 140.05 95.8077 122.85 95.2077 106.85L94.7077 93.35L98.6077 88.25C111.608 71.25 113.608 48.35 103.708 29.45C99.2077 20.95 88.1077 10.05 79.9077 6.04999C68.2077 0.249988 55.5077 -1.35001 43.2077 1.34999Z" fill="#00beff"/>
<path d="M223.408 375.45C195.108 379.25 164.208 390.85 140.408 406.55C115.908 422.75 93.3076 446.05 77.7076 471.05C69.1076 484.95 56.3076 513.55 58.0076 515.25C58.3076 515.55 67.1076 519.45 77.5076 523.75C94.1076 530.75 96.5076 531.55 97.4076 530.15C110.208 509.55 123.308 495.35 139.408 484.65C194.008 448.35 259.808 457.95 305.108 508.85L310.908 515.25V539.05C310.908 557.25 310.608 563.05 309.708 563.25C309.008 563.45 301.408 564.85 292.908 566.35C218.608 579.35 148.508 609.35 104.308 647.15C59.4076 685.45 43.0076 728.15 56.9076 770.05C62.6076 787.15 70.5076 800.25 82.7076 813.05C100.208 831.35 119.908 841.15 146.208 844.75C156.908 846.25 165.708 846.15 179.108 844.35C221.508 838.85 264.408 815.25 299.908 778.15L310.908 766.65L311.108 804.45L311.408 842.35H376.908H442.408L442.708 679.35L442.908 516.35L440.308 508.85C438.908 504.75 434.908 495.45 431.408 488.35C420.808 466.45 408.008 448.95 389.808 431.25C357.208 399.65 317.108 380.45 271.908 374.85C260.508 373.45 235.708 373.75 223.408 375.45ZM310.908 655.85V693.75L308.008 701.75C298.308 728.25 277.808 748.05 251.908 755.95C240.308 759.45 226.208 759.15 214.808 755.15C189.208 746.25 169.208 721.35 169.008 698.25C168.608 668.65 205.308 638.85 258.608 625.55C272.408 622.05 294.608 618.65 307.708 618.05L310.908 617.85V655.85Z" fill="#00beff"/>
</svg>